<svg xmlns="http://www.w3.org/2000/svg" width="100%" height="100%" viewBox="0 0 241.65 33.824">
  <g id="DHL_Logo" transform="translate(0 0.1)">
    <path id="Path_17" data-name="Path 17" d="M0,18.5H29.281L27.6,20.856H0Z" transform="translate(0 12.7)" fill="#d40511"/>
    <path id="Path_18" data-name="Path 18" d="M158.044,20.856H122.2l1.851-2.356h34.161v2.356Z" transform="translate(83.438 12.7)" fill="#d40511"/>
    <path id="Path_19" data-name="Path 19" d="M0,15.9H32.646L30.8,18.256H0Z" transform="translate(0 10.925)" fill="#d40511"/>
    <path id="Path_20" data-name="Path 20" d="M0,13.3H36.012l-1.851,2.356H0Z" transform="translate(0 9.15)" fill="#d40511"/>
    <path id="Path_21" data-name="Path 21" d="M156.678,18.256H124.2l1.851-2.356h30.8v2.356Z" transform="translate(84.804 10.925)" fill="#d40511"/>
    <path id="Path_22" data-name="Path 22" d="M127.951,13.3h27.43v2.356H126.1Z" transform="translate(86.101 9.15)" fill="#d40511"/>
    <path id="Path_23" data-name="Path 23" d="M18.8,28.3,34.282,7.6H53.466c2.188,0,2.188.841,1.01,2.188-1.01,1.346-2.861,3.87-3.87,5.217-.5.841-1.515,2.019,1.683,2.019H78.035a26.275,26.275,0,0,1-21.54,11.443C46.4,28.3,18.8,28.3,18.8,28.3Z" transform="translate(12.837 5.258)" fill="#d40511"/>
    <path id="Path_24" data-name="Path 24" d="M83.859,13.3,75.445,24.575H53.4L61.814,13.3Z" transform="translate(36.461 9.15)" fill="#d40511"/>
    <path id="Path_25" data-name="Path 25" d="M103.027,13.3,94.613,24.575H72.4L80.814,13.3Z" transform="translate(49.435 9.15)" fill="#d40511"/>
    <path id="Path_26" data-name="Path 26" d="M96.31,13.3s-1.683,2.188-2.356,3.2c-2.861,3.7-.337,8.077,8.751,8.077H138.38L146.794,13.3Z" transform="translate(63.388 9.15)" fill="#d40511"/>
    <path id="Path_27" data-name="Path 27" d="M28.441.068,20.7,10.333H62.77c2.188,0,2.188.841,1.01,2.188-1.01,1.346-2.861,3.87-3.87,5.217-.5.673-1.515,2.019,1.683,2.019H78.757s2.861-3.7,5.048-6.9C87,8.651,84.142-.1,72.867-.1,62.77.068,28.441.068,28.441.068Z" transform="translate(14.134 0)" fill="#d40511"/>
    <path id="Path_28" data-name="Path 28" d="M113.686,19.689H59.5L74.309,0H96.522L88.108,11.275h9.929L106.45,0h22.213Z" transform="translate(40.627 0.068)" fill="#d40511"/>
    <path id="Path_29" data-name="Path 29" d="M134.368,0,119.559,19.689H96L110.809,0Z" transform="translate(65.549 0.068)" fill="#d40511"/>
  </g>
</svg>
