<svg xmlns="http://www.w3.org/2000/svg" xmlns:xlink="http://www.w3.org/1999/xlink" width="849" height="103" viewBox="0 0 849 103">
  <defs>
    <clipPath id="clip-Custom_Size_1">
      <rect width="849" height="103"/>
    </clipPath>
  </defs>
  <g id="Custom_Size_1" data-name="Custom Size – 1" clip-path="url(#clip-Custom_Size_1)">
    <rect width="849" height="103" fill="#fff"/>
    <g id="Group_22" data-name="Group 22" transform="translate(-114.011 -487.5)">
      <g id="master_cars_czerwone" data-name="master cars czerwone" transform="translate(93.376 146.388)">
        <g id="Group_3" data-name="Group 3">
          <g id="Group_2" data-name="Group 2" transform="translate(19.9 442.323)">
            <g id="Group_1" data-name="Group 1">
              <path id="Path_1" data-name="Path 1" d="M134.734,0,115.156-100.906H88.734L67.813-30.125,46.75-100.906H20.328L.734,0H25.219L37.094-69.594,56.828,0H78.641l19.75-69.594L110.25,0Zm0,0"/>
            </g>
          </g>
        </g>
        <g id="Group_6" data-name="Group 6">
          <g id="Group_5" data-name="Group 5" transform="translate(155.382 442.323)">
            <g id="Group_4" data-name="Group 4">
              <path id="Path_2" data-name="Path 2" d="M60.094-32.641c0,8.594-6.672,16.313-15.578,16.313S28.938-24.047,28.938-32.641c0-8.609,6.672-16.328,15.578-16.328S60.094-41.25,60.094-32.641ZM82.359-65.3H60.094v7.875c-5.781-7.125-14.094-9.5-22.406-9.5-18.547,0-32.5,16.172-32.5,34.281,0,18.094,13.953,34.125,32.5,34.125,8.313,0,17.953-2.672,22.406-9.344V0H82.359Zm0,0"/>
            </g>
          </g>
        </g>
        <g id="Group_9" data-name="Group 9">
          <g id="Group_8" data-name="Group 8" transform="translate(246.642 442.323)">
            <g id="Group_7" data-name="Group 7">
              <path id="Path_3" data-name="Path 3" d="M69.453-45.562C67.516-60.547,54.906-66.922,37.688-66.922c-21.656,0-31.906,7.422-31.906,20.766,0,23.75,42.3,12.922,42.3,26.719,0,3.563-4.3,5.484-9.344,5.484-4.906,0-13.656-.594-13.656-10.391H2.969C4.156-5.781,18.844,1.484,38.281,1.484c19,0,32.2-5.641,32.2-21.078,0-27.594-42.3-18.25-42.3-27.453,0-3.844,4.609-6.078,8.906-6.078,4.313,0,9.8,1.641,10.547,7.563Zm0,0"/>
            </g>
          </g>
        </g>
        <g id="Group_12" data-name="Group 12">
          <g id="Group_11" data-name="Group 11" transform="translate(321.58 442.323)">
            <g id="Group_10" data-name="Group 10">
              <path id="Path_4" data-name="Path 4" d="M36.953-48.234H48.828v-17.2H36.953V-90.375H14.844v24.938H2.969v17.2H14.844V0H36.953Zm0,0"/>
            </g>
          </g>
        </g>
        <g id="Group_15" data-name="Group 15">
          <g id="Group_14" data-name="Group 14" transform="translate(373.368 442.323)">
            <g id="Group_13" data-name="Group 13">
              <path id="Path_5" data-name="Path 5" d="M29.078-40.516s.75-12.156,14.7-12.156c13.5,0,14.531,12.156,14.531,12.156Zm50.609,6.391c0-20.922-16.469-32.8-36.359-32.8-21.953,0-38.141,13.8-38.141,34.281,0,20.766,15.594,34.125,38.141,34.125,17.359,0,31.313-8.609,35.172-25.828H55.8c-.156,4.75-5.047,9.953-12.906,9.953-8.766,0-14.109-8.016-14.109-15.578h50.75C79.531-31.312,79.688-32.8,79.688-34.125Zm0,0"/>
            </g>
          </g>
        </g>
        <g id="Group_18" data-name="Group 18">
          <g id="Group_17" data-name="Group 17" transform="translate(458.248 442.323)">
            <g id="Group_16" data-name="Group 16">
              <path id="Path_6" data-name="Path 6" d="M45.859-48.969c3.406,0,6.672,1.031,8.891,3.7h.3V-65.437a17.473,17.473,0,0,0-6.672-1.484c-8.156,0-13.8,4.594-17.219,9.5v-8.016H8.906V0h22.25V-32.641C31.156-40.516,37.547-48.969,45.859-48.969Zm0,0"/>
            </g>
          </g>
        </g>
        <g id="Group_21" data-name="Group 21">
          <g id="Group_20" data-name="Group 20" transform="translate(514.785 442.323)">
            <g id="Group_19" data-name="Group 19">
              <path id="Path_7" data-name="Path 7" d="M7.719-11.422A12.944,12.944,0,0,0,20.781,1.484,13.041,13.041,0,0,0,33.828-11.422,13.073,13.073,0,0,0,20.781-24.484,12.978,12.978,0,0,0,7.719-11.422Zm0,0"/>
            </g>
          </g>
        </g>
      </g>
      <text id="cars" transform="translate(641.99 588)" fill="#e71d36" font-size="158" font-family="GlacialIndifference-Bold, Glacial Indifference" font-weight="700"><tspan x="0" y="0">cars</tspan></text>
    </g>
  </g>
</svg>
