<svg xmlns="http://www.w3.org/2000/svg" xmlns:xlink="http://www.w3.org/1999/xlink" width="100%" height="100%" viewBox="0 0 197 25">
  <defs>
    <clipPath id="clip-path">
      <rect id="Rectangle_2" data-name="Rectangle 2" width="197" height="25" transform="translate(-0.185 0.495)"/>
    </clipPath>
  </defs>
  <g id="Custom_Size_1" data-name="Custom Size – 1" transform="translate(0.185 -0.495)" clip-path="url(#clip-path)">
    <rect id="Rectangle_1" data-name="Rectangle 1" width="197" height="25" transform="translate(-0.185 0.495)" fill="#fff"/>
    <g id="Group_22" data-name="Group 22" transform="translate(-0.064 -11.303)">
      <g id="master_cars_czerwone" data-name="master cars czerwone" transform="translate(0 11.545)">
        <g id="Group_3" data-name="Group 3" transform="translate(0 0)">
          <g id="Group_2" data-name="Group 2" transform="translate(0 0)">
            <g id="Group_1" data-name="Group 1" transform="translate(0)">
              <path id="Path_1" data-name="Path 1" d="M31.8-77.516l-4.538-23.39H21.132L16.283-84.5,11.4-100.906H5.276L.734-77.516H6.41L9.162-93.648l4.574,16.132h5.056l4.578-16.132L26.12-77.516Zm0,0" transform="translate(-0.734 100.906)"/>
            </g>
          </g>
        </g>
        <g id="Group_6" data-name="Group 6" transform="translate(32.437 7.877)">
          <g id="Group_5" data-name="Group 5" transform="translate(0 0)">
            <g id="Group_4" data-name="Group 4" transform="translate(0 0)">
              <path id="Path_2" data-name="Path 2" d="M17.915-58.978A3.714,3.714,0,0,1,14.3-55.2a3.714,3.714,0,0,1-3.611-3.781A3.715,3.715,0,0,1,14.3-62.763,3.715,3.715,0,0,1,17.915-58.978Zm5.161-7.57H17.915v1.825a6.39,6.39,0,0,0-5.194-2.2,7.778,7.778,0,0,0-7.533,7.946,7.749,7.749,0,0,0,7.533,7.91c1.927,0,4.161-.619,5.194-2.166v1.823h5.161Zm0,0" transform="translate(-5.188 66.925)"/>
            </g>
          </g>
        </g>
        <g id="Group_9" data-name="Group 9" transform="translate(53.077 7.877)">
          <g id="Group_8" data-name="Group 8" transform="translate(0 0)">
            <g id="Group_7" data-name="Group 7" transform="translate(0)">
              <path id="Path_3" data-name="Path 3" d="M18.38-61.971c-.449-3.474-3.372-4.951-7.363-4.951-5.02,0-7.4,1.72-7.4,4.814,0,5.505,9.805,3,9.805,6.193,0,.826-1,1.271-2.166,1.271-1.137,0-3.165-.138-3.165-2.409H2.969c.275,4.3,3.68,5.987,8.185,5.987,4.4,0,7.464-1.308,7.464-4.886,0-6.4-9.805-4.23-9.805-6.364,0-.891,1.068-1.409,2.064-1.409a2.187,2.187,0,0,1,2.445,1.753Zm0,0" transform="translate(-2.969 66.922)"/>
            </g>
          </g>
        </g>
        <g id="Group_12" data-name="Group 12" transform="translate(70.447 2.441)">
          <g id="Group_11" data-name="Group 11" transform="translate(0 0)">
            <g id="Group_10" data-name="Group 10" transform="translate(0)">
              <path id="Path_4" data-name="Path 4" d="M10.846-80.607H13.6v-3.987H10.846v-5.781H5.722v5.781H2.969v3.987H5.722v11.181h5.125Zm0,0" transform="translate(-2.969 90.375)"/>
            </g>
          </g>
        </g>
        <g id="Group_15" data-name="Group 15" transform="translate(82.966 7.877)">
          <g id="Group_14" data-name="Group 14" transform="translate(0 0)">
            <g id="Group_13" data-name="Group 13" transform="translate(0 0)">
              <path id="Path_5" data-name="Path 5" d="M10.725-60.8a3.127,3.127,0,0,1,3.407-2.818A3.171,3.171,0,0,1,17.5-60.8Zm11.731,1.481c0-4.85-3.818-7.6-8.428-7.6-5.089,0-8.841,3.2-8.841,7.946,0,4.814,3.615,7.91,8.841,7.91,4.024,0,7.258-2,8.153-5.987H16.919a2.754,2.754,0,0,1-2.992,2.307,3.452,3.452,0,0,1-3.27-3.611H22.421c0-.311.035-.656.035-.963Zm0,0" transform="translate(-5.187 66.925)"/>
            </g>
          </g>
        </g>
        <g id="Group_18" data-name="Group 18" transform="translate(103.503 7.878)">
          <g id="Group_17" data-name="Group 17" transform="translate(0 0)">
            <g id="Group_16" data-name="Group 16" transform="translate(0 0)">
              <path id="Path_6" data-name="Path 6" d="M17.472-62.76a2.581,2.581,0,0,1,2.061.858h.07v-4.675a4.05,4.05,0,0,0-1.547-.344,4.806,4.806,0,0,0-3.991,2.2v-1.858H8.906v15.168h5.158v-7.566A3.756,3.756,0,0,1,17.472-62.76Zm0,0" transform="translate(-8.906 66.921)"/>
            </g>
          </g>
        </g>
        <g id="Group_21" data-name="Group 21" transform="translate(116.333 17.715)">
          <g id="Group_20" data-name="Group 20" transform="translate(0 0)">
            <g id="Group_19" data-name="Group 19" transform="translate(0 0)">
              <path id="Path_7" data-name="Path 7" d="M7.719-21.456a3,3,0,0,0,.892,2.126,3,3,0,0,0,2.136.866,3.023,3.023,0,0,0,3.024-2.992,3.03,3.03,0,0,0-3.024-3.028A3.008,3.008,0,0,0,8.6-23.6,3.008,3.008,0,0,0,7.719-21.456Zm0,0" transform="translate(-7.719 24.484)"/>
            </g>
          </g>
        </g>
      </g>
      <text id="cars" transform="translate(122.386 34)" fill="#e71d36" font-size="35" font-family="GlacialIndifference-Bold, Glacial Indifference" font-weight="700"><tspan x="0" y="0">cars</tspan></text>
    </g>
  </g>
</svg>
