<svg xmlns="http://www.w3.org/2000/svg" width="100%" height="100%" viewBox="0 0 13.481 13.481">
  <path id="phone" d="M2.37,11.528a1.275,1.275,0,0,0,.316,2.032A4.562,4.562,0,0,0,6,13.947C8.953,13.2,13.2,8.956,13.945,6a4.562,4.562,0,0,0-.388-3.312,1.275,1.275,0,0,0-2.032-.316l-1.261,1.26a1.266,1.266,0,0,0-.269,1.408,2.345,2.345,0,0,0,.471.709c1.442,1.442-3.276,6.16-4.718,4.718A2.345,2.345,0,0,0,5.038,10a1.265,1.265,0,0,0-1.408.269Z" transform="translate(-2.227 -0.268) rotate(-7)" fill="#fff"/>
</svg>
