<?xml version="1.0" encoding="utf-8"?>
<!-- Generator: Adobe Illustrator 25.4.1, SVG Export Plug-In . SVG Version: 6.00 Build 0)  -->
<svg version="1.1" id="Слой_1" xmlns="http://www.w3.org/2000/svg" xmlns:xlink="http://www.w3.org/1999/xlink" x="0px" y="0px"
	 viewBox="0 0 579 136" style="enable-background:new 0 0 579 136;" xml:space="preserve">
<style type="text/css">
	.st0{fill:#0088FF;}
	.st1{fill:#000C37;}
	.st2{opacity:0.3;fill-rule:evenodd;clip-rule:evenodd;fill:#0088FF;enable-background:new    ;}
	.st3{opacity:0.3;fill:#0088FF;enable-background:new    ;}
	.st4{fill-rule:evenodd;clip-rule:evenodd;fill:#0088FF;}
</style>
<g>
	<path class="st0" d="M183.4,18c-6.6,0.6-12.1,3.1-15.1,6.8c-1.2,1.4-2.5,3.9-2.9,5.7c-0.5,1.8-0.5,6,0,7.8c0.8,3,2.7,5.5,5.7,7.5
		c2.5,1.6,5.6,2.7,12.8,4.5c8.1,2,10.1,2.8,12,4.6c1.4,1.4,1.9,2.5,1.8,4.4c-0.1,1.6-0.7,2.6-1.9,3.8c-1.2,1.2-3,2-5,2.4
		c-7,1.4-15.7-0.4-22-4.6c-0.8-0.5-1.4-0.9-1.4-0.9c0,0-0.8,1.8-1.8,3.9l-1.7,3.9l1.2,0.9c3.3,2.4,8.6,4.4,14.6,5.3
		c3.1,0.4,8.9,0.4,11.8,0c7.3-1.2,12.4-4.4,14.8-9.2c1.3-2.6,1.6-3.9,1.6-6.8c0-4.3-1-6.7-3.9-9.4c-3-2.8-6-4.1-15-6.4
		c-7.7-1.9-9.4-2.5-11.5-4c-2.3-1.6-2.9-4.4-1.6-7.1c0.9-2.1,3.1-3.5,6.1-4.3c2.2-0.5,8.1-0.5,10.5,0c2.5,0.5,5.8,1.7,8,2.8
		c1,0.5,1.9,0.9,1.9,0.9c0.1-0.1,3.1-7.6,3.1-7.8c0-0.3-4.3-2.4-6.3-3c-2.2-0.7-5.2-1.3-7.8-1.6C189.4,17.8,185,17.8,183.4,18z"/>
	<path class="st0" d="M550.2,18.6c-4.4,0.8-7.7,2.4-10.3,4.9c-1.3,1.3-1.8,2-2.5,3.3c-1.1,2.4-1.5,3.7-1.5,6.3c0,5,1.6,8.1,5.7,10.9
		c2.6,1.7,5.2,2.6,13.2,4.7c5.6,1.4,8.9,2.5,10.4,3.5c1.7,1,3.2,2.5,3.8,3.7c0.5,1,0.6,1.3,0.6,3.5c0,2.2,0,2.4-0.7,3.7
		c-1.8,3.6-5.3,5.5-11.3,6c-7.1,0.7-14.9-1.5-19.6-5.5l-1.2-1l-0.7,1.3c-0.4,0.7-0.9,1.6-1.1,2.1l-0.4,0.9l0.6,0.6
		c2.2,2.3,7.3,4.7,12.1,5.7c4.4,0.9,9.8,1.1,13.9,0.4c5.6-1,10.2-3.8,12.4-7.4c1.3-2.2,1.7-3.8,1.8-6.7c0.1-4.1-0.6-6.3-3-8.8
		c-2.9-3.1-5.7-4.4-15.6-6.9c-8.8-2.3-10.6-3-12.9-5.1c-1.8-1.7-2.2-2.7-2.2-5.7c0-2.3,0-2.5,0.6-3.7c2-4.1,6.6-6.2,13.5-6.2
		c5,0,10,1.3,14.1,3.7c0.7,0.4,1.2,0.7,1.3,0.7c0,0,0.5-1,1-2.3c1.1-2.5,1.2-2.2-1.5-3.6c-2-1-4.6-1.9-7.6-2.7
		c-1.9-0.4-2.7-0.5-6.6-0.6C552.9,18.2,551.8,18.3,550.2,18.6z"/>
	<path class="st0" d="M214.7,46.2v27.5h20.6h20.6v-4.3v-4.3h-15.6h-15.6v-7.6v-7.6h13.4h13.4v-4.1v-4.1h-13.4h-13.4v-7.2v-7.2h15.1
		h15.1v-4.2v-4.2h-20.1h-20.1V46.2z"/>
	<path class="st0" d="M287.5,19.2c-0.5,1-24.4,54.3-24.4,54.4c0,0.1,2.3,0.1,5.2,0.1h5.2l2.7-6.4l2.7-6.4h13.9h13.9l2.7,6.4l2.7,6.4
		h5.3c5,0,5.3,0,5.1-0.4c-0.1-0.2-5.6-12.6-12.4-27.5l-12.3-27.2h-5h-5L287.5,19.2z M298.1,41.3c2.7,6.3,4.9,11.5,4.9,11.6
		c0,0.1-4.7,0.1-10.4,0.1c-5.7,0-10.4-0.1-10.4-0.1c0-0.1,10-23.6,10.2-23.9C292.7,28.7,292.7,28.8,298.1,41.3z"/>
	<path class="st0" d="M329,45.8v27.5h2.8h2.8v-8.7v-8.7h7.6c4.2,0,8.6-0.1,9.7-0.1l2.1-0.1l6.3,8.9l6.3,8.9h3.1h3.1l-0.5-0.7
		c-0.2-0.3-3.2-4.5-6.6-9.3c-3.4-4.8-6.2-8.8-6.2-8.8c0-0.1,0.6-0.4,1.3-0.6c3.3-1.2,6.5-3.8,8.3-6.5c3-4.5,3.7-11.6,1.7-17.2
		c-2.3-6.4-8.2-10.5-16.4-11.6c-1.8-0.2-4.7-0.3-13.9-0.3H329V45.8z M351.8,23.3c3.2,0.3,5.2,0.8,7.6,1.9c3.5,1.7,5.8,4.6,6.6,8.3
		c0.4,1.8,0.4,5.4,0,7.2c-1,4.6-4.5,8.1-9.9,9.5l-1.9,0.5l-9.7,0.1l-9.7,0.1V37V23.1h7.3C345.9,23.1,350.4,23.2,351.8,23.3z"/>
	<path class="st0" d="M404.2,19.3c-0.1,0.4-5.7,12.5-12.3,26.9c-6.6,14.4-12.1,26.5-12.3,26.9l-0.3,0.7h3h3l3.3-7.4l3.3-7.4
		l15.4-0.1l15.4,0l3.3,7.4l3.3,7.4l3.1,0.1l3.1,0.1l-0.9-1.9c-0.5-1-6.2-13.4-12.6-27.6l-11.7-25.7h-2.9h-2.9L404.2,19.3z
		 M414.4,40.1c3.4,7.7,6.2,14,6.2,14c0,0-6,0-13.2,0l-13.2-0.1l5.9-13.2c3.2-7.2,6.2-13.9,6.6-14.8l0.7-1.6l0.4,0.8
		C407.9,25.8,410.9,32.4,414.4,40.1z"/>
	<path class="st0" d="M433.3,21v2.4h9.6h9.6v25.1v25.1h2.9h2.9V48.6V23.5h9.6h9.6V21v-2.4h-22.2h-22.2V21z"/>
	<path class="st0" d="M487.2,46.2v27.5h19.4H526v-2.5v-2.5h-16.6h-16.6V58.4V48.2h14.3h14.3v-2.4v-2.4l-14.2,0l-14.2-0.1v-9.8v-9.8
		l16-0.1l16,0V21v-2.4h-18.9h-18.9V46.2z"/>
	<path class="st1" d="M322.3,88.5c-5.5,0.5-8.4,2.8-9.4,7.1c-0.4,1.7-0.4,6.9,0,8.7c1,4.5,3.8,6.6,9.8,7c5.3,0.4,9.9-0.3,12.1-2
		c2.5-1.8,3.3-4.2,3.3-9.4c0-4.8-0.7-7-2.7-8.9c-1.9-1.7-4.4-2.5-9.1-2.6C324.7,88.5,322.8,88.5,322.3,88.5z M328.2,92.4
		c4.1,0.5,5.4,2,5.6,6.5c0.2,4.2-0.4,6.3-2.2,7.5c-1.3,0.9-3,1.2-6.4,1.1c-6.4,0-8-1.6-8-7.6c0-4.2,0.9-6.1,3.3-7
		C322.1,92.3,325.3,92.1,328.2,92.4z"/>
	<path class="st1" d="M163.3,99.9v11.2h2h2v-1.3v-1.3l0.6,0.8c1.2,1.6,4.2,2.5,7.7,2.1c4.2-0.5,6.2-2.3,6.8-6.1
		c0.3-1.7,0.1-5-0.3-6.5c-0.7-2.3-2.2-3.8-4.4-4.4c-1.6-0.5-4.6-0.6-6.3-0.2c-1.7,0.4-2.7,0.9-3.5,2l-0.6,0.8v-4v-4.1h-2h-2V99.9z
		 M176.2,97.8c1,0.4,1.7,1.2,2.1,2.1c0.1,0.4,0.2,1.6,0.3,2.7c0,3.1-0.8,4.6-2.7,5.1c-1.1,0.3-5,0.2-5.9-0.1
		c-1.8-0.6-2.4-1.9-2.4-4.6c0-2.5,0.1-3.3,0.8-4.1c0.7-0.8,1.5-1.2,2.9-1.4C172.6,97.2,175.3,97.4,176.2,97.8z"/>
	<path class="st1" d="M212.6,99.9l0.1,11.1l6.8,0.1c4.1,0,7.5,0,8.5-0.2c4.6-0.6,7-2.3,8.1-5.9c0.4-1.3,0.4-1.8,0.4-5
		c0-3.2-0.1-3.8-0.4-5c-0.9-2.9-2.8-4.6-5.8-5.5c-1.5-0.4-1.9-0.5-9.7-0.5l-8.1-0.1L212.6,99.9z M229,93.2c1.3,0.6,2.1,1.4,2.7,2.8
		c0.4,0.9,0.5,1.3,0.5,4c0,2.7-0.1,3.1-0.5,4c-0.6,1.4-1.5,2.2-2.8,2.8c-1,0.4-1.5,0.5-6.5,0.5l-5.4,0.1v-7.4v-7.4l5.5,0.1
		C227.7,92.7,228,92.7,229,93.2z"/>
	<path class="st1" d="M240.7,99.9l0.1,11.1l2.2,0.1l2.2,0.1v-3.7v-3.7h6.1c6.4,0,7.9-0.2,9.5-1c1.1-0.5,2.2-1.8,2.6-3.1
		c0.5-1.5,0.5-5.2,0-6.7c-0.4-1.3-1.5-2.5-2.6-3.1c-1.7-0.9-3-1-11.8-1h-8.3L240.7,99.9z M257.7,92.9c1.3,0.7,1.6,1.3,1.6,3.3
		c0,2.1-0.3,2.6-1.6,3.3c-0.7,0.4-1.3,0.4-6.7,0.5l-5.9,0.1v-3.9v-3.9l5.9,0.1C256.4,92.5,256.9,92.5,257.7,92.9z"/>
	<path class="st1" d="M273.1,89c0,0.1,5.7,19.2,6.5,21.5l0.2,0.7l3-0.1l3.1-0.1l3.1-8.4l3.1-8.4l0.5,1.2c0.2,0.6,1.6,4.3,3,8.1
		c1.4,3.8,2.7,7.1,2.7,7.3c0.1,0.3,0.4,0.3,3.1,0.3l2.9-0.1l3.4-11.1l3.4-11.1l-2.1-0.1c-1.2,0-2.2,0-2.3,0.1
		c-0.1,0.1-1.2,4-2.6,8.7c-1.3,4.7-2.5,8.7-2.6,8.8c-0.1,0.1-1.6-3.8-3.4-8.7l-3.3-8.9h-2.5h-2.5l-3.2,8.7c-1.8,4.8-3.3,8.8-3.4,9
		c-0.1,0.2-0.2,0-0.4-0.5c-0.1-0.4-1.3-4.4-2.6-8.9l-2.4-8.1l-2.4-0.1C274.1,88.8,273.1,88.8,273.1,89z"/>
	<path class="st1" d="M342.3,99.9l0.1,11.1l2.2,0.1l2.2,0.1v-4.2v-4.3l6.1,0.1c6.6,0.1,6.8,0.1,7.7,1.2c0.4,0.5,0.4,0.9,0.5,3.9
		l0.1,3.3l2.1-0.1l2.2-0.1v-3.6c0-2.5-0.1-3.9-0.3-4.4c-0.4-1.1-1.3-1.9-2.4-2.2c-1.1-0.3-1.2-0.5-0.1-0.7c1.6-0.3,2.6-1.9,2.8-4.4
		c0.2-2.8-0.5-4.9-2.2-5.9c-1.7-1-2.9-1.1-12.2-1.1h-8.6L342.3,99.9z M359.7,93.1c0.5,0.3,0.8,0.7,1,1.2c0.3,1,0.2,2.7-0.3,3.4
		c-0.7,1-1.2,1.1-7.7,1.1h-6v-3.1v-3.1l6.2,0.1C358.6,92.7,359.1,92.7,359.7,93.1z"/>
	<path class="st1" d="M369.6,99.9v11.2h9.4h9.4v-1.9v-1.9h-7.2H374V98v-9.2h-2.2h-2.2V99.9z"/>
	<path class="st1" d="M391.7,99.9l0.1,11.1l6.8,0.1c4.1,0,7.5,0,8.5-0.2c4.6-0.6,7-2.3,8.1-5.9c0.4-1.3,0.4-1.8,0.4-5
		c0-3.2-0.1-3.8-0.4-5c-0.9-2.9-2.8-4.6-5.8-5.5c-1.5-0.4-1.9-0.5-9.7-0.5l-8.1-0.1L391.7,99.9z M408,93.2c2.4,1.1,3.3,3,3.3,6.8
		c0,3.8-1,5.8-3.4,6.8c-1,0.4-1.5,0.5-6.5,0.5l-5.4,0.1v-7.4v-7.4l5.5,0.1C406.8,92.7,407.1,92.7,408,93.2z"/>
	<path class="st1" d="M183.5,94.9c0.1,0.4,1.9,4.1,3.8,8.4l3.6,7.7l-1.3,2.7c-0.7,1.5-1.3,2.7-1.3,2.8s0.9,0.1,2.1,0.1h2.1l5-10.8
		c2.7-5.9,5-11,5.1-11.2c0.1-0.3-0.1-0.3-1.9-0.3h-2.1l-0.5,1c-0.3,0.6-1.4,3.3-2.6,6c-1.2,2.8-2.2,5-2.3,5c-0.1,0-1.3-2.7-2.8-6
		l-2.7-6h-2.2h-2.2L183.5,94.9z"/>
	<path class="st2" d="M0.4,18.5c-0.5-1.9-0.5-3.9,0-5.8c0.5-1.9,1.5-3.6,2.9-5c1.4-1.4,3.1-2.4,5.1-2.9c1.9-0.5,3.9-0.5,5.8,0
		l50.4,13.4c0.5,0.1,1,0.2,1.4,0.4c1.1,0.4,2.1,1.3,2.6,2.3c0.5,1.1,0.7,2.3,0.3,3.5c-0.3,1.2-1.1,2.2-2.1,2.8
		c-1,0.6-2.3,0.9-3.5,0.6l-1.1-0.3c-5.4-1.2-11-1-16.3,0.5c-5.3,1.5-10.1,4.3-14.1,8.1c-3.8,3.9-6.6,8.7-8.1,14
		c-1.5,5.2-1.7,10.8-0.5,16.1l0.3,1.2c0.2,0.6,0.2,1.2,0.2,1.9c-0.1,0.6-0.3,1.2-0.6,1.8c-0.3,0.5-0.7,1-1.2,1.4
		c-0.5,0.4-1.1,0.7-1.7,0.9c-0.6,0.2-1.3,0.2-1.9,0.1c-0.6-0.1-1.2-0.3-1.8-0.6c-0.6-0.3-1-0.7-1.4-1.2c-0.4-0.5-0.7-1.1-0.9-1.7
		c-0.2-0.5-0.3-1-0.4-1.5L0.4,18.5z"/>
	<path class="st3" d="M60.9,82.7c-4.7,1.3-9.6,1.2-14.2-0.3c-4.6-1.5-8.6-4.3-11.6-8.1c-3-3.8-4.7-8.4-5.1-13.2
		c-0.3-4.8,0.8-9.6,3.2-13.7c2.4-4.2,6-7.5,10.4-9.6c4.3-2.1,9.2-2.9,14-2.3c4.8,0.6,9.3,2.7,12.9,5.8c3.6,3.2,6.2,7.4,7.4,12
		c0.8,3,1.1,6.2,0.7,9.3c-0.4,3.1-1.4,6.1-3,8.9c-1.6,2.7-3.7,5.1-6.2,7C66.9,80.5,64,81.9,60.9,82.7z"/>
	<path class="st2" d="M117.9,32.3c1.9,0.5,3.7,1.5,5.1,2.9c1.4,1.4,2.4,3.1,2.9,5c0.5,1.9,0.5,3.9,0,5.8c-0.5,1.9-1.5,3.6-2.9,5
		L86.2,87.8L85,89c-0.4,0.4-1,0.8-1.6,1c-0.6,0.2-1.2,0.4-1.8,0.4c-0.6,0-1.3-0.1-1.8-0.4c-0.6-0.2-1.1-0.6-1.6-1
		c-0.9-0.9-1.4-2.1-1.4-3.4c0-1.3,0.5-2.5,1.4-3.4l0.9-0.8c3.7-4.1,6.3-9,7.7-14.3c1.3-5.3,1.3-10.9,0-16.2
		c-1.4-5.3-4.2-10.1-7.9-14.1c-3.8-4-8.5-6.9-13.7-8.7l-1.3-0.3c-1.2-0.3-2.3-1.1-2.9-2.2c-0.6-1.1-0.8-2.4-0.5-3.6
		c0.3-1.2,1.1-2.3,2.2-2.9c1.1-0.7,2.4-0.9,3.6-0.6l1.5,0.4L117.9,32.3z"/>
	<path class="st4" d="M47.1,126.7c-1.4,1.4-3.1,2.4-5,2.9c-1.9,0.5-3.9,0.5-5.8,0c-1.9-0.5-3.7-1.5-5.1-2.9c-1.4-1.4-2.4-3.1-2.9-5
		L14.6,71.6c0-0.5-0.2-1-0.4-1.4c-0.3-1.2-0.1-2.5,0.5-3.6c0.7-1.1,1.7-1.9,3-2.2c1.2-0.3,2.6-0.1,3.7,0.5c1.1,0.6,1.9,1.7,2.2,2.9
		l0.3,1.1c1.7,5.2,4.6,9.9,8.6,13.8c4,3.8,8.8,6.6,14.1,8.1c5.3,1.3,10.9,1.3,16.2,0c5.3-1.3,10.2-3.9,14.3-7.6l0.9-0.9
		c0.9-0.9,2.1-1.4,3.4-1.4c1.3,0,2.5,0.5,3.4,1.4c0.9,0.9,1.4,2.1,1.4,3.4c0,1.3-0.5,2.5-1.4,3.4c-0.4,0.4-0.7,0.8-1.1,1.1
		L47.1,126.7z"/>
</g>
</svg>
