<?xml version="1.0" encoding="UTF-8"?>
<svg id="svg1609" xmlns="http://www.w3.org/2000/svg" viewBox="0 0 141.75 125.22">
  <defs>
    <style>
      .cls-1 {
        fill: #fff;
      }

      .cls-2 {
        fill: #fc0;
      }
    </style>
  </defs>
  <g id="g4593">
    <path id="path4595" d="M71.2,0c-.14,0-.27,.02-.4,.05-3.17,.03-6.12,1.68-7.71,4.44l-30.96,53.63L1.17,111.74h0c-3.39,5.87,1.01,13.48,7.78,13.48h123.84c6.78,0,11.17-7.62,7.78-13.48l-30.96-53.63L78.66,4.49c-1.45-2.52-4.04-4.12-6.91-4.41-.14-.04-.29-.07-.44-.08h0s-.06,0-.09,0h0Z"/>
    <path id="path4583" class="cls-1" d="M71.2,1.98c-2.62-.12-5.09,1.23-6.4,3.5l-30.96,53.63L2.88,112.73c-2.65,4.59,.77,10.51,6.07,10.51h123.84c5.3,0,8.72-5.92,6.07-10.51l-30.96-53.63L76.94,5.48c-1.19-2.06-3.36-3.38-5.74-3.5h0Z"/>
    <path id="path4577" d="M71.11,3.96c-1.88-.09-3.65,.88-4.59,2.51l-30.96,53.63L4.6,113.72c-1.93,3.35,.48,7.54,4.35,7.54h123.84c3.87,0,6.29-4.19,4.35-7.54l-30.96-53.63L75.23,6.47c-.86-1.48-2.41-2.43-4.11-2.51Z"/>
    <path id="path4573" class="cls-2" d="M132.8,116.23H8.95l30.96-53.63L70.87,8.98l30.96,53.63,30.96,53.63Z"/>
    <g id="g858">
      <circle id="path846" cx="70.87" cy="102.93" r="8.74"/>
      <path id="circle848" d="M70.87,35.4c-4.82,0-8.74,3.91-8.74,8.73l3.13,37.11c0,3.1,2.51,5.61,5.61,5.61,3.1,0,5.61-2.51,5.61-5.61l3.13-37.11c0-4.82-3.91-8.73-8.73-8.73Z"/>
    </g>
  </g>
</svg>